<?xml version="1.0" encoding="utf-8"?>
<svg viewBox="80.41 126.1489 558.3787 531.9766" width="558.379" height="531.977" xmlns="http://www.w3.org/2000/svg">
  <g transform="matrix(1, 0, 0, 1, -45.36834716796875, -22.17445182800293)">
    <g>
      <path fill="#7F52FF" d="M552.2,419.5c-7.8,0-15.1-4.8-17.9-12.6c-3.5-9.9,1.6-20.8,11.5-24.3c38.3-13.7,66.8-38,84.6-72.1 c13.7-26.1,15.8-48.6,15.8-48.9c0.8-10.5,10-18.2,20.5-17.4c10.5,0.8,18.2,10.1,17.4,20.5c-0.1,1.2-2.5,29.1-19.2,61.7 c-15.4,30.1-46.3,70.5-106.4,92C556.5,419.2,554.3,419.5,552.2,419.5z"/>
    </g>
    <g>
      <path fill="#7F52FF" d="M479.1,680.3h-35.4c-6.8,0-13.2-3.6-16.6-9.5s-3.3-13.2,0.2-19c0.1-0.1,11.2-20,15.1-52.4 c5.1-43.2-4.6-87.2-28.8-130.7c-5.1-9.2-1.8-20.7,7.4-25.8c9.2-5.1,20.7-1.8,25.8,7.4c35.6,64.1,37.6,120.1,33,155.9 c-1.8,14.2-4.8,26.4-7.9,36.3h7.1c10.5,0,19,8.5,19,19S489.5,680.3,479.1,680.3z"/>
    </g>
    <g>
      <path fill="#7F52FF" d="M349.9,680.3h-35.4c-10.5,0-19-8.5-19-19s8.5-19,19-19h23.9c11.3-23.1,38.1-88.7,33.6-179.5 c-0.5-10.5,7.6-19.4,18-19.9c10.5-0.5,19.4,7.6,19.9,18c6.2,126.1-41.8,206.8-43.9,210.2C362.7,676.9,356.5,680.3,349.9,680.3z"/>
    </g>
    <g>
      <path fill="#7F52FF" d="M214.6,448.9c-1.7,0-3.4-0.1-5.1-0.2c-24.2-1.8-52.6-17.2-60.1-55c-2.2-10.9-0.7-21.9,0.7-32.5 c3-22.9,3.6-33.5-14.6-43.7c-9.2-5.1-12.4-16.7-7.3-25.9c5.1-9.2,16.7-12.4,25.9-7.3c18.1,10.1,29.4,24.1,33.6,41.6 c3.5,14.3,1.7,28,0.1,40.2c-1,7.9-2,15.3-1.1,20.2c1.4,6.9,6.6,23,25.6,24.4c7.8,0.6,14.2-2,19.8-7.9c5.2-5.6,8.3-12.9,9-17.3 c1.6-10.4,11.3-17.5,21.7-15.9c10.4,1.6,17.5,11.3,15.9,21.7C275,416,252.7,448.9,214.6,448.9z"/>
    </g>
    <g>
      <g>
        <g>
          <path fill="#7F52FF" d="M283.4,489l256.9-18c20-1.4,35.1-18.8,33.7-38.8l-14.2-203.1c-2.3-32.5-40.7-48.5-65.4-27.3l-87.9,75.7 c-5,4.3-12.2,4.8-17.7,1.2l-97.4-62.7c-27.4-17.7-63.3,3.5-61,36.1l14.2,203.1C246,475.3,263.4,490.4,283.4,489z"/>
        </g>
        <g>
          <g>
            <path d="M527.8,452.4l-234.2,16.3c-15.4,1.1-28.8-10.6-29.9-26L256.5,339c-1.1-15.4,10.6-28.8,26-29.9l234.2-16.3 c15.4-1.1,28.8,10.6,29.9,26l7.2,103.7C554.8,438,543.2,451.3,527.8,452.4z"/>
          </g>
        </g>
        <g>
          <g>
            <g>
              <path fill="#FFFFFF" d="M385.5,425.6c7,2.8,15,3.5,22.4,2.8c7.8-0.7,15.6-2.6,22.3-6.7c2-1.2,3-4.1,1.6-6.2c-1.3-2-4-2.9-6.2-1.6 c-1.4,0.9-2.9,1.6-4.5,2.3c0.7-0.3,0.2-0.1-0.2,0.1c-0.4,0.2-0.9,0.3-1.3,0.5c-0.8,0.3-1.6,0.5-2.4,0.8 c-1.7,0.5-3.4,0.9-5.1,1.2c-0.5,0.1-1,0.2-1.5,0.3c-0.1,0-1.4,0.2-0.3,0.1c-0.9,0.1-1.9,0.2-2.8,0.3 c-3.6,0.3-7.1,0.2-10.7-0.2c-0.9-0.1,0.8,0.1-0.4-0.1c-0.4-0.1-0.8-0.1-1.2-0.2c-0.8-0.1-1.6-0.3-2.4-0.5 c-1.6-0.4-3.3-0.9-4.8-1.6c-2.2-0.9-5,1-5.5,3.1C381.8,422.6,383.2,424.6,385.5,425.6L385.5,425.6z"/>
            </g>
          </g>
        </g>
      </g>
    </g>
    <g>
      <g>
        <path fill="#7F52FF" d="M643,161.8c-7.1-2.6-14.6-1.2-20.2,3c-1.6-6.8-6.5-12.7-13.6-15.2c-11.1-4-23.4,1.7-27.4,12.9 c-8.1,22.4,13.1,49.4,20.8,58.2c11.5-1.8,45.1-9,53.2-31.4C659.9,178.1,654.1,165.9,643,161.8z"/>
      </g>
    </g>
    <g>
      <g>
        <path fill="#7F52FF" d="M177.5,209c-3.7,1.4-6.2,4.6-7,8.2c-3-2.1-7-2.8-10.7-1.4c-5.8,2.2-8.7,8.8-6.4,14.6 c4.5,11.7,22.3,15.1,28.4,15.9c3.9-4.7,14.8-19.2,10.3-30.8C189.8,209.6,183.3,206.7,177.5,209z"/>
      </g>
    </g>
    <g>
      <g>
        <g>
          <path fill="#FFFFFF" d="M335.2,347.8L335.2,347.8c4.7-0.3,8.8,3.2,9.1,7.9v0c0.3,4.7-3.2,8.8-7.9,9.1l0,0c-4.7,0.3-8.8-3.2-9.1-7.9 l0,0C327,352.2,330.5,348.1,335.2,347.8z"/>
        </g>
        <g>
          <path fill="#FFFFFF" d="M319.6,350.2L319.6,350.2c-4.7,0.3-8.8-3.2-9.1-7.9l0,0c-0.3-4.7,3.2-8.8,7.9-9.1h0 c4.7-0.3,8.8,3.2,9.1,7.9l0,0C327.9,345.8,324.3,349.9,319.6,350.2z"/>
        </g>
        <g>
          <path fill="#FFFFFF" d="M296.8,334.7L296.8,334.7c4.7-0.3,8.8,3.2,9.1,7.9v0c0.3,4.7-3.2,8.8-7.9,9.1l0,0c-4.7,0.3-8.8-3.2-9.1-7.9 l0,0C288.6,339.1,292.1,335.1,296.8,334.7z"/>
        </g>
        <g>
          <path fill="#FFFFFF" d="M297,361.1L297,361.1c1.1,4.6-1.8,9.2-6.4,10.2l0,0c-4.6,1.1-9.2-1.8-10.2-6.4v0c-1.1-4.6,1.8-9.2,6.4-10.2 h0C291.3,353.7,295.9,356.5,297,361.1z"/>
        </g>
        <g>
          <path fill="#FFFFFF" d="M284,386.2L284,386.2c-1.1-4.6,1.8-9.2,6.4-10.2h0c4.6-1.1,9.2,1.8,10.2,6.4l0,0c1.1,4.6-1.8,9.2-6.4,10.2 h0C289.6,393.6,285,390.8,284,386.2z"/>
        </g>
        <g>
          <path fill="#FFFFFF" d="M310.5,393.8L310.5,393.8c3.5,3.1,3.9,8.5,0.8,12l0,0c-3.1,3.5-8.5,3.9-12,0.8l0,0c-3.5-3.1-3.9-8.5-0.8-12 l0,0C301.5,391.1,306.9,390.7,310.5,393.8z"/>
        </g>
        <g>
          <path fill="#FFFFFF" d="M315.4,419.7L315.4,419.7c-3.5-3.1-3.9-8.5-0.8-12l0,0c3.1-3.5,8.5-3.9,12-0.8l0,0c3.5,3.1,3.9,8.5,0.8,12 l0,0C324.3,422.4,319,422.8,315.4,419.7z"/>
        </g>
        <g>
          <path fill="#FFFFFF" d="M334.9,429.9L334.9,429.9c-3.5-3.1-3.9-8.5-0.8-12h0c3.1-3.5,8.5-3.9,12-0.8l0,0c3.5,3.1,3.9,8.5,0.8,12 l0,0C343.8,432.6,338.4,433,334.9,429.9z"/>
        </g>
      </g>
      <g>
        <g>
          <path fill="#FFFFFF" d="M335.2,347.8L335.2,347.8c-4.7,0.3-8.2,4.4-7.9,9.1l0,0c0.3,4.7,4.4,8.2,9.1,7.9l0,0 c4.7-0.3,8.2-4.4,7.9-9.1v0C343.9,351,339.9,347.5,335.2,347.8z"/>
        </g>
        <g>
          <path fill="#FFFFFF" d="M350.9,348L350.9,348c4.7-0.3,8.2-4.4,7.9-9.1v0c-0.3-4.7-4.4-8.2-9.1-7.9h0c-4.7,0.3-8.2,4.4-7.9,9.1l0,0 C342.2,344.8,346.2,348.4,350.9,348z"/>
        </g>
        <g>
          <path fill="#FFFFFF" d="M371.4,329.5L371.4,329.5c-4.7,0.3-8.2,4.4-7.9,9.1l0,0c0.3,4.7,4.4,8.2,9.1,7.9h0c4.7-0.3,8.2-4.4,7.9-9.1 l0,0C380.2,332.8,376.1,329.2,371.4,329.5z"/>
        </g>
        <g>
          <path fill="#FFFFFF" d="M374.9,355.7L374.9,355.7c-0.4,4.7,3,8.8,7.7,9.2h0c4.7,0.4,8.8-3,9.2-7.7v0c0.4-4.7-3-8.8-7.7-9.2h0 C379.4,347.5,375.3,351,374.9,355.7z"/>
        </g>
        <g>
          <path fill="#FFFFFF" d="M391.2,378.7L391.2,378.7c0.4-4.7-3-8.8-7.7-9.2h0c-4.7-0.4-8.8,3-9.2,7.7l0,0c-0.4,4.7,3,8.8,7.7,9.2h0 C386.7,386.9,390.8,383.4,391.2,378.7z"/>
        </g>
        <g>
          <path fill="#FFFFFF" d="M366,389.9L366,389.9c-3.1,3.5-2.7,8.9,0.8,12h0c3.5,3.1,8.9,2.7,12-0.8v0c3.1-3.5,2.7-8.9-0.8-12l0,0 C374.5,386,369.1,386.4,366,389.9z"/>
        </g>
        <g>
          <path fill="#FFFFFF" d="M364.7,416.3L364.7,416.3c3.1-3.5,2.7-8.9-0.8-12l0,0c-3.5-3.1-8.9-2.7-12,0.8v0c-3.1,3.5-2.7,8.9,0.8,12h0 C356.3,420.2,361.6,419.8,364.7,416.3z"/>
        </g>
        <g>
          <path fill="#FFFFFF" d="M346.9,429.1L346.9,429.1c3.1-3.5,2.7-8.9-0.8-12l0,0c-3.5-3.1-8.9-2.7-12,0.8h0c-3.1,3.5-2.7,8.9,0.8,12v0 C338.4,433,343.8,432.6,346.9,429.1z"/>
        </g>
      </g>
    </g>
    <g>
      <g>
        <g>
          <path fill="#FFFFFF" d="M473.2,339.3L473.2,339.3c4.7-0.3,8.8,3.2,9.1,7.9v0c0.3,4.7-3.2,8.8-7.9,9.1h0c-4.7,0.3-8.8-3.2-9.1-7.9v0 C465,343.7,468.5,339.6,473.2,339.3z"/>
        </g>
        <g>
          <path fill="#FFFFFF" d="M457.7,341.7L457.7,341.7c-4.7,0.3-8.8-3.2-9.1-7.9l0,0c-0.3-4.7,3.2-8.8,7.9-9.1l0,0 c4.7-0.3,8.8,3.2,9.1,7.9v0C465.9,337.3,462.4,341.4,457.7,341.7z"/>
        </g>
        <g>
          <path fill="#FFFFFF" d="M434.8,326.2L434.8,326.2c4.7-0.3,8.8,3.2,9.1,7.9v0c0.3,4.7-3.2,8.8-7.9,9.1h0c-4.7,0.3-8.8-3.2-9.1-7.9v0 C426.6,330.6,430.1,326.5,434.8,326.2z"/>
        </g>
        <g>
          <path fill="#FFFFFF" d="M435,352.6L435,352.6c1.1,4.6-1.8,9.2-6.4,10.2l0,0c-4.6,1.1-9.2-1.8-10.2-6.4v0c-1.1-4.6,1.8-9.2,6.4-10.2 l0,0C429.4,345.2,433.9,348,435,352.6z"/>
        </g>
        <g>
          <path fill="#FFFFFF" d="M422,377.7L422,377.7c-1.1-4.6,1.8-9.2,6.4-10.2l0,0c4.6-1.1,9.2,1.8,10.2,6.4l0,0 c1.1,4.6-1.8,9.2-6.4,10.2v0C427.6,385.1,423.1,382.3,422,377.7z"/>
        </g>
        <g>
          <path fill="#FFFFFF" d="M448.5,385.3L448.5,385.3c3.5,3.1,3.9,8.5,0.8,12h0c-3.1,3.5-8.5,3.9-12,0.8l0,0c-3.5-3.1-3.9-8.5-0.8-12 l0,0C439.6,382.6,444.9,382.2,448.5,385.3z"/>
        </g>
        <g>
          <path fill="#FFFFFF" d="M453.5,411.2L453.5,411.2c-3.5-3.1-3.9-8.5-0.8-12h0c3.1-3.5,8.5-3.9,12-0.8v0c3.5,3.1,3.9,8.5,0.8,12l0,0 C462.4,413.9,457,414.3,453.5,411.2z"/>
        </g>
        <g>
          <path fill="#FFFFFF" d="M472.9,421.4L472.9,421.4c-3.5-3.1-3.9-8.5-0.8-12l0,0c3.1-3.5,8.5-3.9,12-0.8l0,0c3.5,3.1,3.9,8.5,0.8,12 l0,0C481.8,424.1,476.4,424.5,472.9,421.4z"/>
        </g>
      </g>
      <g>
        <g>
          <path fill="#FFFFFF" d="M473.2,339.3L473.2,339.3c-4.7,0.3-8.2,4.4-7.9,9.1v0c0.3,4.7,4.4,8.2,9.1,7.9h0c4.7-0.3,8.2-4.4,7.9-9.1v0 C482,342.5,477.9,339,473.2,339.3z"/>
        </g>
        <g>
          <path fill="#FFFFFF" d="M489,339.5L489,339.5c4.7-0.3,8.2-4.4,7.9-9.1v0c-0.3-4.7-4.4-8.2-9.1-7.9l0,0c-4.7,0.3-8.2,4.4-7.9,9.1v0 C480.2,336.3,484.3,339.8,489,339.5z"/>
        </g>
        <g>
          <path fill="#FFFFFF" d="M509.4,321L509.4,321c-4.7,0.3-8.2,4.4-7.9,9.1l0,0c0.3,4.7,4.4,8.2,9.1,7.9l0,0c4.7-0.3,8.2-4.4,7.9-9.1v0 C518.2,324.2,514.1,320.7,509.4,321z"/>
        </g>
        <g>
          <path fill="#FFFFFF" d="M512.9,347.2L512.9,347.2c-0.4,4.7,3,8.8,7.7,9.2h0c4.7,0.4,8.8-3,9.2-7.7l0,0c0.4-4.7-3-8.8-7.7-9.2v0 C517.5,339,513.3,342.5,512.9,347.2z"/>
        </g>
        <g>
          <path fill="#FFFFFF" d="M529.3,370.2L529.3,370.2c0.4-4.7-3-8.8-7.7-9.2l0,0c-4.7-0.4-8.8,3-9.2,7.7v0c-0.4,4.7,3,8.8,7.7,9.2h0 C524.7,378.4,528.8,374.9,529.3,370.2z"/>
        </g>
        <g>
          <path fill="#FFFFFF" d="M504.1,381.4L504.1,381.4c-3.1,3.5-2.7,8.9,0.8,12v0c3.5,3.1,8.9,2.7,12-0.8l0,0c3.1-3.5,2.7-8.9-0.8-12 l0,0C512.5,377.5,507.2,377.9,504.1,381.4z"/>
        </g>
        <g>
          <path fill="#FFFFFF" d="M502.8,407.8L502.8,407.8c3.1-3.5,2.7-8.9-0.8-12l0,0c-3.5-3.1-8.9-2.7-12,0.8v0c-3.1,3.5-2.7,8.9,0.8,12 l0,0C494.3,411.7,499.7,411.3,502.8,407.8z"/>
        </g>
        <g>
          <path fill="#FFFFFF" d="M484.9,420.6L484.9,420.6c3.1-3.5,2.7-8.9-0.8-12l0,0c-3.5-3.1-8.9-2.7-12,0.8l0,0c-3.1,3.5-2.7,8.9,0.8,12 l0,0C476.4,424.5,481.8,424.1,484.9,420.6z"/>
        </g>
      </g>
    </g>
  </g>
</svg>
