<?xml version="1.0" encoding="utf-8"?>
<svg viewBox="26.7042 107.9268 762 499.4853" width="762" height="499.485" xmlns="http://www.w3.org/2000/svg">
  <defs>
    <style type="text/css">
	.st0{fill:#7F52FF;}
	.st1{fill:#FFFFFF;}
	.st2{fill:#FE2857;}
</style>
  </defs>
  <g transform="matrix(1, 0, 0, 1, 9.004193305969245, -55.28797912597656)">
    <g>
      <path class="st0" d="M255.6,613.8c-2.3,0-4.6-0.4-6.8-1.3l-33.1-12.7c-9.8-3.7-14.7-14.7-11-24.5c3.7-9.8,14.7-14.7,24.5-11 l13.6,5.2c13.4-43.1,51.2-138.4,127.5-155.5c10.2-2.3,20.4,4.1,22.7,14.4c2.3,10.2-4.1,20.4-14.4,22.7 c-37.2,8.4-63.4,46.9-78.8,77.7c-17.8,35.7-25.8,69.9-25.8,70.2c-1.2,5.4-4.7,9.9-9.6,12.5C261.8,613.1,258.7,613.8,255.6,613.8z"/>
    </g>
    <g>
      <path class="st0" d="M430.3,662.7c-2.9,0-5.9-0.7-8.7-2.1c-9.3-4.8-13-16.3-8.2-25.6l7.5-14.5c-6.1-5.3-13.8-12.4-21.5-21.1 c-24.1-26.8-37.9-54.6-41.1-82.6c-3.7-33.1,7.7-64.5,34-93.3c7.1-7.8,19.1-8.3,26.8-1.3c7.8,7.1,8.3,19.1,1.3,26.8 c-18.8,20.7-26.8,41.5-24.3,63.5c4.5,40.5,44.7,76.7,59.8,87.2c7.8,5.5,10.4,15.8,6,24.3l-14.6,28.3 C443.8,658.9,437.2,662.7,430.3,662.7z"/>
    </g>
    <g>
      <g>
        <path class="st0" d="M712.1,452.9c-140.1,0-185.3-70.7-187.2-73.8l32.4-19.9l-0.1-0.2c0.1,0.2,10.1,15.3,35.7,29.5 c24,13.4,67.1,28.8,135.6,26c10.5-0.4,19.3,7.7,19.8,18.2c0.4,10.5-7.7,19.3-18.2,19.8C723.8,452.8,717.9,452.9,712.1,452.9z"/>
      </g>
      <g>
        <path class="st0" d="M89.8,453c-5.4,0-10.8-0.2-16.2-0.7c-10.5-0.9-18.2-10.2-17.2-20.6c0.9-10.5,10.1-18.2,20.6-17.2 c54.7,4.9,133.6-27.2,157.1-77.5c4.4-9.5,15.8-13.6,25.3-9.2c9.5,4.4,13.6,15.8,9.2,25.3c-13.1,27.9-41.1,54.8-77,73.8 C159.2,443.9,123.6,453,89.8,453z"/>
      </g>
      <g>
        <path class="st0" d="M258.4,440.8l255.9,28.8c19.9,2.2,37.9-12.1,40.2-32l22.8-202.3c3.6-32.4-31.2-55.1-59.4-38.6l-100.2,58.6 c-5.7,3.3-12.9,2.5-17.7-2l-84.4-79.3c-23.8-22.3-62.9-8-66.5,24.4l-22.8,202.3C224.1,420.6,238.4,438.6,258.4,440.8z"/>
      </g>
      <g>
        <g>
          <path d="M505.3,445.9L272,419.6c-15.4-1.7-26.4-15.6-24.7-31L259,285.3c1.7-15.4,15.6-26.4,31-24.7l233.2,26.3 c15.4,1.7,26.4,15.6,24.7,31l-11.7,103.3C534.5,436.6,520.6,447.6,505.3,445.9z"/>
        </g>
      </g>
      <g>
        <g>
          <g>
            <path class="st1" d="M376.8,402.1c6,2.7,12.6,4,19.2,3.6c6.4-0.3,13.2-2,18.4-5.9c1.9-1.4,3-4,1.6-6.2 c-1.2-1.9-4.1-3.1-6.2-1.6c-1.1,0.8-2.3,1.5-3.5,2.2c-0.3,0.2-0.6,0.3-0.9,0.5c-0.8,0.4,0.5-0.2-0.1,0 c-0.6,0.2-1.2,0.5-1.8,0.7c-1.4,0.4-2.8,0.8-4.2,1c-0.4,0.1-0.7,0.1-1.1,0.2c0.6-0.1,0.4-0.1-0.1,0c-0.7,0.1-1.5,0.1-2.2,0.2 c-1.4,0.1-2.8,0.1-4.2,0c-0.7,0-1.5-0.1-2.2-0.2c-0.9-0.1,0.5,0.1-0.1,0c-0.4-0.1-0.7-0.1-1.1-0.2c-1.3-0.2-2.7-0.5-4-0.9 c-0.7-0.2-1.3-0.4-2-0.6c-0.3-0.1-0.5-0.2-0.8-0.3c-1.1-0.4,0.5,0.2-0.3-0.1c-2.1-1-4.9-0.7-6.2,1.6 C374.2,397.9,374.5,401.1,376.8,402.1L376.8,402.1z"/>
          </g>
        </g>
      </g>
      <g>
        <g>
          <path class="st1" d="M339.4,306.4c1.2,0,2.5,0.1,3.7,0.2c8.6,1,16.3,5.2,21.7,12s7.8,15.3,6.9,23.9 c-1.9,16.4-15.7,28.8-32.2,28.8c-1.2,0-2.5-0.1-3.7-0.2c-8.6-1-16.3-5.2-21.7-12c-5.4-6.8-7.8-15.3-6.9-23.9 C309,318.7,322.9,306.4,339.4,306.4C339.4,306.4,339.4,306.4,339.4,306.4 M339.4,288.4c-25.3,0-47.1,19-50.1,44.8 c-3.1,27.7,16.8,52.7,44.4,55.8c1.9,0.2,3.8,0.3,5.8,0.3c25.3,0,47.1-19,50.1-44.8c3.1-27.7-16.8-52.7-44.4-55.8 C343.2,288.5,341.3,288.4,339.4,288.4L339.4,288.4z"/>
        </g>
        <g>
          <path class="st1" d="M457.5,319.8c1.2,0,2.5,0.1,3.7,0.2c8.6,1,16.3,5.2,21.7,12c5.4,6.8,7.8,15.3,6.9,23.9 c-1.9,16.4-15.7,28.8-32.2,28.8c-1.2,0-2.5-0.1-3.7-0.2c-8.6-1-16.3-5.2-21.7-12s-7.8-15.3-6.9-23.9 C427.2,332.2,441.1,319.8,457.5,319.8C457.5,319.8,457.5,319.8,457.5,319.8 M457.5,301.8c-25.3,0-47.1,19-50.1,44.8 c-3.1,27.7,16.8,52.7,44.4,55.8c1.9,0.2,3.8,0.3,5.7,0.3c25.3,0,47.1-19,50.1-44.8c3.1-27.7-16.8-52.7-44.4-55.8 C461.4,301.9,459.4,301.8,457.5,301.8L457.5,301.8z"/>
        </g>
      </g>
    </g>
    <g>
      <path class="st0" d="M778.2,453h-759c-0.8,0-1.5-0.7-1.5-1.5s0.7-1.5,1.5-1.5h759c0.8,0,1.5,0.7,1.5,1.5S779.1,453,778.2,453z"/>
    </g>
  </g>
</svg>