<?xml version="1.0" encoding="utf-8"?>
<svg viewBox="17.6966 145.6845 651.7355 480.9083" width="651.735" height="480.908" xmlns="http://www.w3.org/2000/svg">
  <g transform="matrix(1, 0, 0, 1, -58.17585372924805, -41.307247161865234)">
    <g>
      <g>
        <path fill="#7F52FF" d="M288.9,667.9c-6.1,0-12.1-2.9-15.7-8.3l-19.9-29.4c-3.3-4.9-4.2-11-2.3-16.6c1.8-5.6,6.1-10,11.7-12 c0.3-0.1,34.7-12.6,64.5-37c16.5-13.5,28.4-28,35.3-43c8.3-18,9.5-36.5,3.6-56.6c-2.9-10.1,2.8-20.6,12.9-23.6 c10.1-2.9,20.6,2.8,23.6,12.9c15.1,51.9-2.9,100.4-52.2,140.3c-18.6,15.1-38.2,26-52.8,33.1l7.1,10.4c5.9,8.7,3.6,20.5-5.1,26.4 C296.3,666.8,292.6,667.9,288.9,667.9z"/>
      </g>
      <g>
        <path fill="#7F52FF" d="M580.3,632.7c-2.2,0-4.4-0.4-6.5-1.2c-9.9-3.6-14.9-14.5-11.3-24.4l4.3-11.8c-15.8-3.3-37.5-9.2-59.2-19.3 c-57.5-26.7-86.8-69.4-84.7-123.4c0.4-10.5,9.2-18.7,19.7-18.3c10.5,0.4,18.7,9.2,18.3,19.7c-0.8,20.9,4.8,38.6,17.3,54.1 c10.4,12.9,25.4,24,44.7,33.1c34.8,16.4,71.2,20.2,71.6,20.2c5.8,0.6,11.1,3.8,14.2,8.8c3.1,5,3.8,11.1,1.8,16.6l-12.2,33.3 C595.4,627.9,588.1,632.7,580.3,632.7z"/>
      </g>
      <g>
        <path fill="#7F52FF" d="M557.7,421.1c-3,0-6-0.7-8.8-2.2c-9.3-4.9-12.9-16.4-8-25.7c21.9-41.6,57.7-73,103.5-90.8 c34.3-13.3,62.4-14.3,63.6-14.3c10.5-0.3,19.3,7.9,19.6,18.4c0.3,10.5-7.9,19.2-18.3,19.6c-0.4,0-23.9,1.1-52.3,12.3 c-37,14.6-64.7,39.1-82.4,72.6C571.1,417.4,564.5,421.1,557.7,421.1z"/>
      </g>
      <g>
        <path fill="#7F52FF" d="M269.6,441.4c-4.8,0-9.6-1.8-13.3-5.5c-27.6-27.2-62.5-44.8-103.9-52.3c-31.5-5.8-55.2-3.2-55.4-3.2 c-10.4,1.2-19.8-6.3-21-16.7c-1.2-10.4,6.2-19.8,16.6-21c4.5-0.5,110.9-12.1,190.3,66.2c7.5,7.4,7.6,19.4,0.2,26.9 C279.4,439.5,274.5,441.4,269.6,441.4z"/>
      </g>
      <g>
        <g>
          <path fill="#7F52FF" d="M289.5,483.8l256.9-18c20-1.4,35.1-18.8,33.7-38.8l-14.2-203.1c-2.3-32.5-40.7-48.5-65.4-27.3l-87.9,75.7 c-5,4.3-12.2,4.8-17.7,1.2l-97.4-62.7c-27.4-17.7-63.3,3.5-61,36.1l14.2,203.1C252.2,470.1,269.5,485.1,289.5,483.8z"/>
        </g>
        <g>
          <g>
            <path d="M533.9,447.1l-234.2,16.3c-15.4,1.1-28.8-10.6-29.9-26l-7.2-103.7c-1.1-15.4,10.6-28.8,26-29.9l234.2-16.3 c15.4-1.1,28.8,10.6,29.9,26l7.2,103.7C560.9,432.7,549.3,446.1,533.9,447.1z"/>
          </g>
        </g>
      </g>
      <g>
        <path fill="#FFFFFF" d="M416.1,414.3c-6.2,0-11.2-5-11.2-11.2s5-11.2,11.2-11.2c6.2,0,11.2,5,11.2,11.2S422.3,414.3,416.1,414.3z M416.1,397.9c-2.9,0-5.2,2.4-5.2,5.2s2.4,5.2,5.2,5.2c2.9,0,5.2-2.4,5.2-5.2S419,397.9,416.1,397.9z"/>
      </g>
    </g>
    <g>
      <g>
        <path fill="#FFFFFF" d="M321.4,378c-0.6-8.6,2.2-17,7.9-23.6c5.7-6.5,13.6-10.5,22.2-11.1c0.8-0.1,1.5-0.1,2.3-0.1c0,0,0,0,0,0 c16.9,0,31.1,13.3,32.3,30.2c0.1,1.2,0.1,2.4,0.1,3.6c-0.2,5.4,4.3,9.7,9.6,9.3l0,0c4.5-0.3,8.2-4,8.4-8.5 c0.1-1.9,0.1-3.8-0.1-5.7c-1.9-26.6-24-46.9-50.3-46.9c-1.2,0-2.4,0-3.6,0.1c-27.8,1.9-48.7,26.1-46.8,53.8 c0.1,1.9,0.4,3.8,0.7,5.6c0.8,4.5,4.9,7.6,9.5,7.3h0c5.4-0.4,9.2-5.3,8.2-10.6C321.6,380.4,321.5,379.2,321.4,378z"/>
      </g>
      <g>
        <path fill="#FFFFFF" d="M440.1,369.7c-0.6-8.6,2.2-17,7.9-23.6c5.7-6.5,13.6-10.5,22.2-11.1c0.8-0.1,1.5-0.1,2.3-0.1c0,0,0,0,0,0 c16.9,0,31.1,13.3,32.3,30.2c0.1,1.2,0.1,2.4,0.1,3.6c-0.2,5.4,4.3,9.7,9.6,9.3h0c4.5-0.3,8.2-4,8.4-8.5c0.1-1.9,0.1-3.7-0.1-5.6 c-1.9-26.6-24-46.9-50.3-46.9c-1.2,0-2.4,0-3.6,0.1c-27.8,1.9-48.7,26.1-46.8,53.8c0.1,1.9,0.4,3.8,0.7,5.6 c0.8,4.5,4.9,7.6,9.5,7.3h0c5.4-0.4,9.2-5.3,8.2-10.6C440.3,372.1,440.1,370.9,440.1,369.7z"/>
      </g>
    </g>
    <g>
      <path fill="#7F52FF" d="M606.6,549.5c-0.8,0-1.5-0.7-1.5-1.5v-49.8c0-0.8,0.7-1.5,1.5-1.5s1.5,0.7,1.5,1.5V548 C608.1,548.8,607.5,549.5,606.6,549.5z"/>
    </g>
    <g>
      <path fill="#7F52FF" d="M619.6,554.1c-0.4,0-0.8-0.1-1.1-0.4c-0.6-0.6-0.6-1.5,0-2.1l19.1-19.1c0.6-0.6,1.5-0.6,2.1,0 c0.6,0.6,0.6,1.5,0,2.1l-19.1,19.1C620.4,553.9,620,554.1,619.6,554.1z"/>
    </g>
    <g>
      <path fill="#7F52FF" d="M260,589.8c-0.8,0-1.5-0.7-1.5-1.5v-49.8c0-0.8,0.7-1.5,1.5-1.5s1.5,0.7,1.5,1.5v49.8 C261.5,589.1,260.8,589.8,260,589.8z"/>
    </g>
    <g>
      <path fill="#7F52FF" d="M245.2,595.2c-0.4,0-0.8-0.1-1.1-0.4L225,575.7c-0.6-0.6-0.6-1.5,0-2.1c0.6-0.6,1.5-0.6,2.1,0l19.1,19.1 c0.6,0.6,0.6,1.5,0,2.1C245.9,595,245.6,595.2,245.2,595.2z"/>
    </g>
  </g>
</svg>
