<?xml version="1.0" encoding="utf-8"?>
<svg viewBox="2068.8446 369.6228 438.9315 363.7673" width="438.931px" height="363.767px" xmlns="http://www.w3.org/2000/svg">
  <defs>
    <linearGradient x1="0" y1="0" x2="1" y2="0" gradientUnits="userSpaceOnUse" gradientTransform="matrix(0,-89.143333,-89.143333,0,1760.6021,536.92303)" spreadMethod="pad" id="linearGradient172">
      <stop style="stop-opacity:1;stop-color:#f73054" offset="0" id="stop164"/>
      <stop style="stop-opacity:1;stop-color:#f73054" offset="0.0034" id="stop166"/>
      <stop style="stop-opacity:1;stop-color:#d700e7" offset="0.4689" id="stop168"/>
      <stop style="stop-opacity:1;stop-color:#8052ff" offset="1" id="stop170"/>
    </linearGradient>
    <clipPath clipPathUnits="userSpaceOnUse" id="clipPath182">
      <path d="M 0,800 H 2002.112 V 0 H 0 Z" id="path180"/>
    </clipPath>
  </defs>
  <g id="g152" transform="matrix(1.3333332538604736, 0, 0, -1.3333332538604736, 1.1368683772161603e-13, 1066.666748046875)">
    <g id="g154">
      <g id="g160">
        <g id="g162">
          <path d="m 1816.057,518.469 -51.023,-37.985 c -2.576,-1.826 -6.234,-1.946 -8.914,0.088 v 0 l -51.18,37.86 c -13.801,10.203 -33.224,0.366 -33.136,-16.673 v 0 l 0.154,-117.411 c 0,-10.341 8.473,-18.709 18.814,-18.705 v 0 l 139.923,0.22 c 10.341,0.002 18.709,8.473 18.705,18.814 v 0 l -0.153,117.411 c 0.081,12.19 -9.897,20.695 -20.636,20.695 v 0 c -4.258,-10e-4 -8.637,-1.338 -12.554,-4.314" style="fill:url(#linearGradient172);stroke:none" id="path174"/>
        </g>
      </g>
    </g>
  </g>
  <g id="g176" transform="matrix(1.3333332538604736, 0, 0, -1.3333332538604736, 1.1368683772161603e-13, 1066.666748046875)">
    <g id="g178" clip-path="url(#clipPath182)">
      <g id="g184" transform="translate(1570.6501,380.0971)">
        <path d="m 0,0 c -3.628,0.283 -7.038,0.753 -10.65,1.238 -5.41,0.828 -9.078,5.778 -8.25,11.188 0.828,5.41 5.779,9.078 11.188,8.25 22.849,-3.407 46.775,-0.816 69.28,6.956 22.521,7.972 42.801,20.987 58.511,37.805 3.757,3.965 10.067,4.283 14.031,0.526 3.965,-3.757 4.283,-10.067 0.526,-14.032 C 100.376,15.678 49.778,-3.889 0,0" style="fill:#8052ff;fill-opacity:1;fill-rule:nonzero;stroke:none" id="path186"/>
      </g>
      <g id="g188" transform="translate(1652.5973,258.5256)">
        <path d="m 0,0 c -0.806,0.063 -1.612,0.126 -2.387,0.592 -5.129,1.82 -7.945,7.312 -6.124,12.441 l 7.406,22.131 c 1.587,4.742 6.257,7.419 11.264,6.622 12.586,-2.402 25.777,-4.852 38.042,-3.58 12.466,1.256 22.814,6.53 28.281,14.214 4.317,5.948 6.389,14.302 6.899,26.023 0.432,10.712 1.125,32.556 0.939,32.774 0.223,5.457 4.616,9.777 10.073,9.553 5.457,-0.223 9.778,-4.616 9.554,-10.073 -0.016,-0.202 -0.709,-22.046 -0.954,-32.976 C 102.369,61.955 99.037,50.455 92.639,41.222 83.755,28.737 68.304,20.414 50.115,18.591 38.052,17.303 26.023,19.054 14.816,20.943 L 10.07,6.918 C 8.7,2.362 4.434,-0.346 0,0" style="fill:#8052ff;fill-opacity:1;fill-rule:nonzero;stroke:none" id="path190"/>
      </g>
      <g id="g192" transform="translate(1790.4165,249.9879)">
        <path d="m 0,0 -29.625,2.315 c -3.426,0.267 -6.71,2.349 -8.086,5.498 -1.578,3.164 -1.279,6.994 0.771,9.875 5.032,7.312 9.847,14.438 13.997,23.44 3.187,7.051 7.309,18.286 8.799,32.16 1.678,16.293 -2.718,35.291 -6.292,41.45 -2.878,4.685 -1.398,10.653 3.288,13.531 4.685,2.878 10.653,1.398 13.531,-3.288 C 3.408,113.686 7.596,89.433 5.559,71.141 3.865,54.647 -1.035,41.242 -4.937,32.828 -6.911,28.318 -9.04,24.429 -11.354,20.758 L 1.745,19.734 C 7.186,19.309 11.274,14.529 10.849,9.088 10.222,3.662 5.442,-0.425 0,0" style="fill:#8052ff;fill-opacity:1;fill-rule:nonzero;stroke:none" id="path194"/>
      </g>
      <g id="g196" transform="translate(1829.6559,313.6308)">
        <path d="m 0,0 c -3.628,0.283 -7.098,2.582 -8.427,6.336 -2.04,5.025 0.634,10.697 5.659,12.737 16.938,6.584 29.761,20.181 33.19,35.526 3.678,15.934 -4.068,33.571 -17.363,39.882 -4.88,2.409 -7.06,8.256 -4.651,13.137 2.409,4.881 8.257,7.06 13.138,4.651 C 32.299,107.171 41.094,97.765 46.258,86.007 51.253,74.667 52.493,61.999 49.75,50.25 44.81,28.535 27.515,9.61 4.311,0.677 2.853,0.183 1.411,-0.11 0,0" style="fill:#8052ff;fill-opacity:1;fill-rule:nonzero;stroke:none" id="path198"/>
      </g>
      <g id="g200" transform="translate(1823.5164,376.4822)">
        <path d="m 0,0 -125.72,0.448 c -8.915,0.128 -16.037,7.207 -15.91,16.121 l 0.264,54.744 c 0.128,8.914 7.207,16.037 16.121,15.909 L 0.476,86.774 C 9.39,86.646 16.513,79.567 16.385,70.653 L 16.121,15.909 C 15.993,6.995 8.914,-0.128 0,0" style="fill:#000000;fill-opacity:1;fill-rule:nonzero;stroke:none" id="path202"/>
      </g>
      <g id="g204" transform="translate(1756.1238,388.1352)">
        <path d="m 0,0 c -2.989,0.653 -4.702,2.011 -4.887,2.229 -0.772,0.47 -0.89,1.494 -0.236,2.048 0.469,0.773 1.493,0.891 2.048,0.237 0.185,-0.218 6.701,-4.813 13.849,0.681 0.654,0.554 1.661,0.471 2.199,-0.384 0.555,-0.655 0.471,-1.662 -0.384,-2.2 C 7.824,-1.052 3.358,-1.089 0.37,-0.436 0.403,-0.033 0.202,-0.017 0,0" style="fill:#ffffff;fill-opacity:1;fill-rule:nonzero;stroke:none" id="path206"/>
      </g>
      <g id="g208" transform="translate(1694.9565,403.9391)">
        <path d="m 0,0 c -1.813,0.15 -3.308,1.693 -3.36,3.523 -0.012,17.039 13.895,30.697 30.934,30.709 8.31,-0.078 15.95,-3.346 21.763,-9.1 5.812,-5.754 9.024,-13.524 8.946,-21.834 0.035,-2.031 -1.71,-3.51 -3.539,-3.561 -2.032,-0.035 -3.51,1.709 -3.562,3.539 0.113,6.279 -2.443,12.169 -6.928,16.799 -4.502,4.429 -10.38,6.943 -16.658,7.056 C 14.619,27.189 4.017,16.706 3.959,3.729 3.994,1.698 2.249,0.22 0.419,0.168 0.201,-0.017 0,0 0,0" style="fill:#ffffff;fill-opacity:1;fill-rule:nonzero;stroke:none" id="path210"/>
      </g>
      <g id="g212" transform="translate(1767.192,404.2589)">
        <path d="m 0,0 c -1.813,0.15 -3.308,1.693 -3.36,3.523 0.078,8.31 3.346,15.95 9.1,21.763 5.754,5.812 13.524,9.024 21.834,8.946 8.31,-0.078 15.95,-3.346 21.763,-9.1 5.812,-5.754 9.024,-13.524 8.946,-21.834 0.035,-2.031 -1.71,-3.51 -3.539,-3.562 -2.032,-0.035 -3.51,1.71 -3.562,3.54 0.113,6.278 -2.442,12.169 -6.928,16.799 -4.502,4.429 -10.379,6.943 -16.658,7.056 C 21.317,27.244 15.427,24.688 10.797,20.203 6.368,15.7 3.854,9.823 3.741,3.545 3.776,1.513 2.031,0.035 0.201,-0.017 0.218,0.185 0,0 0,0" style="fill:#ffffff;fill-opacity:1;fill-rule:nonzero;stroke:none" id="path214"/>
      </g>
    </g>
  </g>
</svg>